<svg xmlns="http://www.w3.org/2000/svg" xmlns:xlink="http://www.w3.org/1999/xlink" width="656.771" height="90.253" viewBox="0 0 656.771 90.253"><defs><clipPath id="a"><rect width="84.929" height="79.966" transform="translate(0 0)" fill="#fff" stroke="#707070" stroke-width="1"/></clipPath></defs><g transform="translate(16566 14232)"><g transform="translate(-16566 -14232)"><g transform="translate(0 0)"><g transform="translate(0 36.182)"><path d="M833.11,256.819a19.243,19.243,0,0,1-.219,2.946c-1.257,8.216-7.911,13.193-18.229,13.193-12.528,0-18.2-6.508-19.232-14.9H810.5a5.322,5.322,0,0,0,1.708,3.366,3.445,3.445,0,0,0,2.158.669h.032c1.985-.012,3.051-1.05,3.051-2.6,0-1.627-.343-2.8-5.969-4.165-13.506-3.255-14.827-9.826-14.827-15.683,0-.082,0-.164,0-.245.108-8.337,5.783-14.592,17.173-14.592,10.52,0,17.469,5.012,18.007,14.187H817.7c-.293-1.952-1.076-3.449-3.376-3.449-1.663,0-2.5.847-2.5,2.148,0,1.561,1.467,2.343,5.284,3.253a29.771,29.771,0,0,1,9.984,3.963C831.657,247.987,833.11,252.081,833.11,256.819Z" transform="translate(-795.43 -224.803)" fill="#221a31"/><path d="M1102.893,232.933V245.3h-10.276v33.447H1077.6V245.3H1067.22V232.933Z" transform="translate(-1028.011 -231.76)" fill="#221a31"/><path d="M1322.19,232.923h-19.819l-11.841,45.812h14.68l1.223-6.508h11.3l1.321,6.508h16.051Zm-13.066,26.941c.783-4.165,1.958-10.152,2.643-14.446h.392c.929,4.295,1.909,9.5,2.789,14.446Z" transform="translate(-1219.106 -231.752)" fill="#221a31"/><path d="M1627.858,254.867h14.778c-1.664,12.559-9.2,18.09-20.357,18.09-12.333,0-19.588-8.387-20.54-21.235q-.11-1.45-.11-2.972c0-12.819,6.02-23.947,21.091-23.947,13.506,0,19.232,8.395,20.064,17.831h-15.122c-.391-3.253-1.371-6.247-4.893-6.247-3.572,0-5.286,3.97-5.286,12.3,0,1,.023,2,.082,2.972.294,4.9,1.49,9.2,5.2,9.2C1626.244,260.854,1627.32,258.122,1627.858,254.867Z" transform="translate(-1485.326 -224.803)" fill="#221a31"/><path d="M1956.134,278.735h-17.519l-6.41-15.877-3.573,5.01v10.867H1913.61V232.923h15.022v17.766c2.839-5.857,5.726-11.909,8.712-17.766h18.1L1942.432,251.4l1.732,3.455Z" transform="translate(-1752.3 -231.752)" fill="#221a31"/><g transform="translate(207.601 8.885)"><path d="M2237.879,306.314l-3.388,18.167h7.887l5.667-18.168Zm3.972-19.922a6.075,6.075,0,0,0-6.017,6.134v.051a6.022,6.022,0,0,0,6.076,5.967h.058a6.075,6.075,0,0,0,6.017-6.017v-.117A6.075,6.075,0,0,0,2241.85,286.391Z" transform="translate(-2234.49 -286.391)" fill="#221a31"/></g></g><g transform="translate(126.339 0.001)"><path d="M1691.518-26v7.781h-11v3.809h10.318v7.781h-10.318V2.836h-9.332V-26Z" transform="translate(-1671.19 25.997)" fill="#221a31"/><path d="M1853.845-26V-8.958c0,.345-.006.684-.019,1.016-.265,7.32-3.517,11.518-12.178,11.518-8.748,0-11.828-4.752-11.828-12.78V-26h9.488V-8.549c0,2.294.615,3.973,2.555,3.973,1.887,0,2.383-1.63,2.477-3.273.013-.234.019-.469.019-.7V-26Z" transform="translate(-1806.936 25.997)" fill="#221a31"/><path d="M2044.3-4.945l-.039.3-.948,7.477h-19.62V-26h9.518V-4.945Z" transform="translate(-1972.838 25.997)" fill="#221a31"/><path d="M2201.445-4.945l-.053.424-.932,7.357H2180.84V-26h9.517V-4.945Z" transform="translate(-2107.317 25.997)" fill="#221a31"/></g><g transform="translate(0.001)"><path d="M822.2,2.828H811.179l-4.035-9.993-2.249,3.154V2.828H795.44V-26.007h9.455v11.182c1.786-3.686,3.6-7.494,5.482-11.182h11.4l-8.193,11.633,1.091,2.175Z" transform="translate(-795.44 26.007)" fill="#221a31"/><rect width="9.485" height="28.835" transform="translate(28.091)" fill="#221a31"/><path d="M1095.453-26.007v7.783h-6.467V2.828h-9.456V-18.225H1073v-7.783Z" transform="translate(-1032.959 26.007)" fill="#221a31"/><path d="M1233.637-26.007h-12.474L1213.71,2.828h9.238l.77-4.1h7.117l.831,4.1h10.1Zm-6.561,7.865h.247c.586,2.7,1.2,5.98,1.755,9.093h-3.666C1225.906-11.67,1226.645-15.438,1227.076-18.142Z" transform="translate(-1153.37 26.007)" fill="#221a31"/><path d="M1442.841-10.694a7.425,7.425,0,0,0-2.65-1.633,5.592,5.592,0,0,0,3.536-4.249,8.741,8.741,0,0,0,.186-1.59c0-.1,0-.2,0-.3s0-.186,0-.278v-.007c-.12-3.858-2.665-7.252-8.467-7.252H1420.17V2.828h15.368c5.051,0,7.649-2.076,8.709-4.856a8.744,8.744,0,0,0,.424-1.532,10.949,10.949,0,0,0,.17-1.968A6.906,6.906,0,0,0,1442.841-10.694Zm-10.2-4.417h-3.358v-4.3h3.327a1.905,1.905,0,0,1,2.095,2.089A1.968,1.968,0,0,1,1432.645-15.111Zm-.124,11.387h-3.234V-8.68h3.328a2.191,2.191,0,0,1,2.4,2.416A2.282,2.282,0,0,1,1432.521-3.724Z" transform="translate(-1330.046 26.007)" fill="#221a31"/></g></g><g transform="translate(0 0)" opacity="0.1"><g transform="translate(0 37.354)"><g transform="translate(0 9.566)"><path d="M824.683,345.883c0,1.552-1.066,2.591-3.051,2.6-.6-.221-1.326-.443-2.19-.669a5.321,5.321,0,0,1-1.708-3.366h-7.347c-5.783-3.48-6.5-8.184-6.5-12.5l0-6.187.009.027c0,.081,0,.163,0,.245,0,5.857,1.321,12.428,14.827,15.683C824.339,343.084,824.683,344.256,824.683,345.883Z" transform="translate(-802.661 -321.936)" fill="#100d15"/><path d="M833.11,459.983c0,9.957-6.949,16.139-18.448,16.139-12.526,0-18.2-6.508-19.23-14.9V455.3c1.029,8.395,6.7,14.9,19.232,14.9,10.318,0,16.972-4.977,18.229-13.193A19.011,19.011,0,0,1,833.11,459.983Z" transform="translate(-795.43 -432.788)" fill="#100d15"/><path d="M929.083,302.682V308.6h-4.745a29.771,29.771,0,0,0-9.984-3.963c-3.817-.91-5.284-1.692-5.284-3.253,0-1.3.833-2.148,2.5-2.148,2.3,0,3.083,1.5,3.376,3.449Z" transform="translate(-892.676 -299.233)" fill="#100d15"/></g><g transform="translate(39.209 12.365)"><rect width="10.375" height="5.915" fill="#100d15"/><rect width="10.276" height="5.915" transform="translate(25.397)" fill="#100d15"/><rect width="15.022" height="5.916" transform="translate(10.375 33.447)" fill="#100d15"/></g><g transform="translate(116.304 10.413)"><path d="M1642.637,414.548v5.915c-1.664,12.559-9.2,18.09-20.357,18.09-13.26,0-20.65-9.7-20.65-24.207q0-1.489.11-2.943c.952,12.848,8.207,21.235,20.54,21.235C1633.437,432.638,1640.973,427.107,1642.637,414.548Z" transform="translate(-1601.63 -396.068)" fill="#100d15"/><path d="M1736.83,311.35v5.915h-15.121c-.391-3.253-1.371-6.247-4.893-6.247-3.122,0-4.824,3.032-5.2,9.355-.059-.977-.082-1.976-.082-2.972,0-8.328,1.714-12.3,5.286-12.3,3.523,0,4.5,2.993,4.893,6.247Z" transform="translate(-1695.676 -305.103)" fill="#100d15"/></g><g transform="translate(161.31)"><path d="M2045.242,456.3v5.916h-17.519l-6.41-15.877-3.573,5.01v-5.916l3.573-5.01,6.41,15.877Z" transform="translate(-2002.719 -410.488)" fill="#100d15"/><path d="M2126.417,232.923v5.916l-11.284,16.02L2113.4,251.4Z" transform="translate(-2084.578 -232.923)" fill="#100d15"/><rect width="15.022" height="5.916" transform="translate(0 45.812)" fill="#100d15"/></g><g transform="translate(207.601 13.848)"><path d="M2255.952,328.913v5.965a6.022,6.022,0,0,1-6.075,5.968h-.05a6.022,6.022,0,0,1-6.026-6.017v-5.866a6.022,6.022,0,0,0,6.076,5.967h.058A6.076,6.076,0,0,0,2255.952,328.913Z" transform="translate(-2242.457 -328.913)" fill="#100d15"/><path d="M2248.044,424.493v5.915l-5.667,18.168h-7.887v-5.915h7.887Z" transform="translate(-2234.49 -410.704)" fill="#100d15"/></g><g transform="translate(71.424 12.495)"><path d="M1335.11,511.88v5.915h-16.051l-1.321-4.732h-11.3l-1.223,4.732h-14.68V511.88h14.68l1.223-6.508h11.3l1.322,6.508Z" transform="translate(-1290.53 -478.563)" fill="#100d15"/><path d="M1425.244,333.979h-5.824c.783-4.165,1.958-10.152,2.643-14.446h.393C1423.385,323.828,1424.364,329.034,1425.244,333.979Z" transform="translate(-1400.826 -319.533)" fill="#100d15"/></g></g><g transform="translate(126.339 3.723)"><g transform="translate(0 4.06)"><rect width="9.332" height="3.725" transform="translate(0 21.052)" fill="#100d15"/><rect width="10.318" height="3.725" transform="translate(9.332 11.59)" fill="#100d15"/><path d="M1746.876,27.943V31.81h-.678v-.059H1735.88V27.943Z" transform="translate(-1726.548 -27.943)" fill="#100d15"/></g><path d="M1853.724,14.135v2.708c0,7.946-3.142,12.533-12.2,12.533-8.747,0-11.826-4.752-11.826-12.78V-.2h.017v13.07c0,8.028,3.08,12.78,11.828,12.78C1850.207,25.653,1853.458,21.455,1853.724,14.135Z" transform="translate(-1806.833 0.197)" fill="#100d15"/><path d="M2044.04,20.856l-.987,7.783H2023.41V-.2h.04V24.914h19.62l.948-7.477Z" transform="translate(-1972.598 0.197)" fill="#100d15"/><path d="M2201.062,20.855l-.988,7.784h-19.643V-.2h.059V24.914h19.62l.932-7.357Z" transform="translate(-2106.967 0.197)" fill="#100d15"/></g><g transform="translate(0.001)"><rect width="9.455" height="3.725" transform="translate(0 28.835)" fill="#100d15"/><path d="M878.29,114.6v3.723H867.264l-4.035-9.993-2.249,3.154v-3.723l2.249-3.154,4.035,9.993Z" transform="translate(-851.525 -85.761)" fill="#100d15"/><path d="M929.383-26.007v3.725l-7.1,10.084-1.091-2.175Z" transform="translate(-903.049 26.007)" fill="#100d15"/><g transform="translate(40.041 7.783)"><rect width="9.456" height="3.725" transform="translate(6.529 21.052)" fill="#100d15"/><rect width="6.529" height="3.723" fill="#100d15"/><rect width="6.467" height="3.723" transform="translate(15.986)" fill="#100d15"/></g><path d="M999.667,177.588H990.18v-3.725h9.482" transform="translate(-962.087 -145.03)" fill="#100d15"/><g transform="translate(60.34 7.865)"><path d="M1241.769,149.578V153.3h-10.1l-.831-4.1h-7.117l-.769,4.1h-9.24v-3.723h9.239l.77-4.1h7.117l.831,4.1Z" transform="translate(-1213.71 -128.608)" fill="#100d15"/><path d="M1298.5,37.606h-3.666c.493-2.621,1.232-6.389,1.664-9.093h.247C1297.326,31.216,1297.942,34.493,1298.5,37.606Z" transform="translate(-1283.128 -28.513)" fill="#100d15"/></g><g transform="translate(90.125 6.596)"><path d="M1562.676,31.772a7.155,7.155,0,0,1-1.076,4.052,7.426,7.426,0,0,0-2.65-1.633,5.593,5.593,0,0,0,3.536-4.248,8.721,8.721,0,0,0,.186-1.59l0,3.054V31.4C1562.672,31.525,1562.676,31.648,1562.676,31.772Z" transform="translate(-1538.929 -27.107)" fill="#100d15"/><path d="M1444.842,115.953v3.725c0,4.341-2.28,8.356-9.3,8.356h-15.37v-3.725h15.368c5.051,0,7.649-2.076,8.709-4.856a8.744,8.744,0,0,0,.424-1.532A10.949,10.949,0,0,0,1444.842,115.953Z" transform="translate(-1420.17 -102.069)" fill="#100d15"/><path d="M1488.781,21.8a1.968,1.968,0,0,1-2.063,2.212h-3.358v-4.3h3.327A1.9,1.9,0,0,1,1488.781,21.8Z" transform="translate(-1474.244 -19.713)" fill="#100d15"/><path d="M1489.09,96.519a2.281,2.281,0,0,1-2.5,2.539h-3.234V94.1h3.328A2.191,2.191,0,0,1,1489.09,96.519Z" transform="translate(-1474.244 -83.371)" fill="#100d15"/></g></g></g></g><g transform="translate(-16248.474 -14226.899)"><g transform="translate(94.695 0)"><path d="M33.538-18.37h9.1V-58.7H30.291l-6.61,22.068L17.13-58.7H4.664V-18.37h9.219V-44.186L21.652-18.37h4l7.885-25.816ZM46.932-33c0,9.311,5.45,15.357,13.567,15.357a14.541,14.541,0,0,0,10.437-4.172l-3.711-5.26a8.166,8.166,0,0,1-5.74,2.539,5.829,5.829,0,0,1-6.146-5.623h17.22v-2.418c0-9.371-4.638-15.719-12.524-15.719C51.918-48.3,46.932-41.465,46.932-33Zm12.988-8.4c3.479,0,4.522,3.023,4.638,5.381H55.281C55.455-38.382,56.557-41.4,59.919-41.4ZM74.878-33c0,9.311,5.45,15.357,13.567,15.357a14.541,14.541,0,0,0,10.437-4.172l-3.711-5.26a8.166,8.166,0,0,1-5.74,2.539,5.829,5.829,0,0,1-6.146-5.623h17.22v-2.418c0-9.371-4.638-15.719-12.524-15.719C79.865-48.3,74.878-41.465,74.878-33Zm12.988-8.4c3.479,0,4.522,3.023,4.638,5.381H83.228C83.4-38.382,84.5-41.4,87.866-41.4Zm25.743,23.76a9.1,9.1,0,0,0,5.8-1.632L117.9-26.048a2.82,2.82,0,0,1-1.913.665c-1.276,0-1.913-1.028-1.913-2.721v-11.85H118.6v-7.618h-4.522v-7.981h-8.407v7.981h-3.537v7.618h3.537v14.027C105.666-20.425,108.217-17.644,113.609-17.644Zm8.813-.726h8.407v-3.446a8.169,8.169,0,0,0,6.9,4.172c6.262,0,10.552-5.562,10.552-15.357,0-9.432-4.233-15.3-10.552-15.3a7.906,7.906,0,0,0-6.9,4.172V-58.7h-8.407ZM130.83-28.1v-9.734a5.018,5.018,0,0,1,4.117-2.721c3.015,0,4.754,3.083,4.754,7.557,0,4.534-1.739,7.618-4.754,7.618A4.893,4.893,0,0,1,130.83-28.1Zm33.223,10.459c8.7,0,13.336-7.195,13.336-15.357s-4.638-15.3-13.336-15.3S150.775-41.163,150.775-33,155.355-17.644,164.053-17.644Zm0-7.739c-3.189,0-4.638-3.325-4.638-7.618,0-4.232,1.45-7.557,4.638-7.557,3.247,0,4.7,3.325,4.7,7.557C168.749-28.708,167.3-25.383,164.053-25.383Zm29.164,7.739c8.7,0,13.336-7.195,13.336-15.357s-4.638-15.3-13.336-15.3S179.939-41.163,179.939-33,184.52-17.644,193.217-17.644Zm0-7.739c-3.189,0-4.638-3.325-4.638-7.618,0-4.232,1.45-7.557,4.638-7.557,3.247,0,4.7,3.325,4.7,7.557C197.913-28.708,196.464-25.383,193.217-25.383Zm33.049,7.013h9.8l-8.871-16.082,8.407-13.12h-9.683l-6.958,11.91V-58.7h-8.407V-18.37h8.407v-6.771L221.4-28.95Z" transform="translate(-4.664 97.696)" fill="#302340"/><path d="M3.776-12.9H8.112V-23.044h4.531c5.117,0,7.7-3.864,7.7-8.371,0-4.467-2.578-8.331-7.7-8.331H3.776ZM15.925-31.416c0,2.656-1.484,4.427-3.789,4.427H8.112v-8.854h4.024C14.441-35.843,15.925-34.072,15.925-31.416ZM22.6-12.9h3.906V-26.224a5.273,5.273,0,0,1,4.18-2.7,4.139,4.139,0,0,1,1.016.121v-3.984a6.3,6.3,0,0,0-5.2,3.3v-2.858H22.6Zm18.243.483c5.352,0,8.164-4.749,8.164-10.223S46.2-32.824,40.848-32.824s-8.164,4.709-8.164,10.182S35.5-12.419,40.848-12.419Zm0-3.542c-2.852,0-4.141-3.18-4.141-6.681S38-29.283,40.848-29.283s4.141,3.139,4.141,6.641S43.7-15.961,40.848-15.961Zm12.774-19.6a2.472,2.472,0,0,0,2.422-2.5,2.482,2.482,0,0,0-2.422-2.536,2.514,2.514,0,0,0-2.461,2.536A2.5,2.5,0,0,0,53.622-35.561Zm1.953,3.22H51.669v21.331c0,1.811-.82,2.5-1.953,2.5a3.238,3.238,0,0,1-.9-.121l-.469,3.381a7.23,7.23,0,0,0,1.953.241c3.477,0,5.274-2.173,5.274-6Zm2.656,9.7c0,6.037,3.281,10.223,8.477,10.223A8.519,8.519,0,0,0,73.232-15.4l-1.875-2.415A5.749,5.749,0,0,1,67.1-15.719c-3.047,0-4.766-2.415-4.922-5.594H74.17v-1.167c0-5.876-2.734-10.343-7.852-10.343C61.279-32.824,58.232-28.276,58.232-22.642Zm8.047-6.922c3.008,0,4.063,2.978,4.1,5.393H62.138C62.255-26.506,63.349-29.564,66.279-29.564ZM87.3-12.9h4.571L85.5-23.608l6.25-8.734H87.217L80.576-22.8V-39.747H76.67V-12.9h3.906v-4.991l2.266-3.139Z" transform="translate(-3.776 40.592)" fill="#302340"/><ellipse cx="5.259" cy="5.474" rx="5.259" ry="5.474" transform="translate(234.03 39)" fill="#302340"/></g><g transform="translate(0 0)" clip-path="url(#a)"><g transform="translate(-3.343 -15.508)"><path d="M56.565,68.371,3.169,30.15c-5.411-3.873-3.586-11.917,3.151-13.8L62.983.49a7.8,7.8,0,0,1,7.281.987,8.437,8.437,0,0,1,3.481,6.71L70.469,62.266C70.081,68.685,61.976,72.244,56.565,68.371Z" transform="matrix(-0.259, -0.966, 0.966, -0.259, 20.355, 101.22)" fill="#ffbb39"/><path d="M32.478,76.362.945,12.865a9.083,9.083,0,0,1,.672-9.209A8.431,8.431,0,0,1,9.869.106l58.27,9.37A8.632,8.632,0,0,1,74.473,14.2a9.1,9.1,0,0,1,.011,8.057L47.733,76.389a8.455,8.455,0,0,1-15.254-.025Z" transform="matrix(-0.259, -0.966, 0.966, -0.259, 19.52, 93.861)" fill="#ec5858"/><path d="M64.5,4.7,35.537,0,0,10,14.236,38.934,47.5,62.867A8.45,8.45,0,0,0,49.9,64.054L62.477,38.366Z" transform="matrix(-0.259, -0.966, 0.966, -0.259, 23.461, 90.964)" fill="#302340"/></g></g></g><path d="M3.707-33.81v-8.241H16.652V-55h8.3v12.945H37.9v8.241H24.956V-20.8h-8.3V-33.81Z" transform="translate(-16317.464 -14148.401)" fill="#c7bdd3"/></g></svg>